<?xml version="1.0" encoding="iso-8859-1"?>
<!-- Generator: Adobe Illustrator 19.0.0, SVG Export Plug-In . SVG Version: 6.00 Build 0)  -->
<svg xmlns="http://www.w3.org/2000/svg" xmlns:xlink="http://www.w3.org/1999/xlink" version="1.1" id="Layer_1" x="0px" y="0px" viewBox="0 0 424.006 424.006" style="enable-background:new 0 0 424.006 424.006;" xml:space="preserve" width="512" height="512">
<g>
	<g>
		<path style="fill:#646565;" d="M411.614,98.237c-8.16-1.444-15.94,4.002-17.383,12.16L376.27,212.001h-33.268    c-8.284,0-15,6.716-15,15s6.716,15,15,15h30v69c0,8.284,6.716,15,15,15s15-6.716,15-15v-77.882l20.771-117.5    C425.216,107.461,419.771,99.679,411.614,98.237z"/>
		<path style="fill:#7A7B7B;" d="M81.003,212.001H47.735L29.774,110.396c-1.442-8.157-9.223-13.604-17.383-12.16    c-8.157,1.442-13.602,9.224-12.16,17.382l20.771,117.5v77.882c0,8.284,6.716,15,15,15s15-6.716,15-15v-69h30    c8.284,0,15-6.716,15-15S89.287,212.001,81.003,212.001z"/>
	</g>
	<path style="fill:#FFE48E;" d="M152.003,179.001h-60c-8.284,0-15-6.716-15-15s6.716-15,15-15h60c8.284,0,15,6.716,15,15   S160.287,179.001,152.003,179.001z"/>
	<path style="fill:#F8D56D;" d="M331.003,179.001h-60c-8.284,0-15-6.716-15-15s6.716-15,15-15h60c8.284,0,15,6.716,15,15   S339.287,179.001,331.003,179.001z"/>
	<path style="fill:#51A7A6;" d="M360.093,175.001c0-8.284-6.902-15-15.186-15H79.099c-8.284,0-15.186,6.716-15.186,15   c0,7.353,5.09,13.458,12.09,14.741V310.78c0,8.284,6.716,15,15,15s15-6.716,15-15v-2.779h212v2.779c0,8.284,6.716,15,15,15   s15-6.716,15-15V189.742C355.003,188.459,360.093,182.354,360.093,175.001z"/>
	<path style="fill:#42D4CB;" d="M212.003,160.001H79.099c-8.284,0-15.186,6.716-15.186,15c0,7.353,5.09,13.458,12.09,14.741V310.78   c0,8.284,6.716,15,15,15s15-6.716,15-15v-2.779h106V160.001z"/>
</g>















</svg>
