<?xml version="1.0" encoding="UTF-8" standalone="no" ?>
<!DOCTYPE svg PUBLIC "-//W3C//DTD SVG 1.1//EN" "http://www.w3.org/Graphics/SVG/1.1/DTD/svg11.dtd">
<svg xmlns="http://www.w3.org/2000/svg" xmlns:xlink="http://www.w3.org/1999/xlink" version="1.1" width="1083.1040234375" height="322.66409999999996" xml:space="preserve">
<desc>Created with Fabric.js 1.6.0-rc.1</desc>
<defs></defs>
<g style="stroke: none; stroke-width: 1; stroke-dasharray: none; stroke-linecap: butt; stroke-linejoin: miter; stroke-miterlimit: 10; fill: none; fill-rule: nonzero; opacity: 1;" transform="translate(10 10) scale(0.59 0.59)" >
  <path d="M 83.553 157.522 c 0 0 42.604 40.014 133.467 0.854 c 90.861 -39.156 93.339 -45.434 117.906 -40.558 C 290.791 -46.807 36.952 -12.432 83.553 157.522 z" style="stroke: none; stroke-width: 1; stroke-dasharray: none; stroke-linecap: butt; stroke-linejoin: miter; stroke-miterlimit: 10; fill: #46B778; fill-rule: nonzero; opacity: 1;" transform=" matrix(1 0 0 1 0 0) " stroke-linecap="round" />
  <path d="M 214.053 461.854 c 0 0 13.369 -56.885 -65.991 -115.953 c -79.361 -59.067 -86.041 -58.073 -94.099 -81.774 C -66.616 384.64 90.09 587.165 214.053 461.854 z" style="stroke: none; stroke-width: 1; stroke-dasharray: none; stroke-linecap: butt; stroke-linejoin: miter; stroke-miterlimit: 10; fill: #96CBF8; fill-rule: nonzero; opacity: 1;" transform=" matrix(1 0 0 1 0 0) " stroke-linecap="round" />
  <path d="M 411.8 196.549 c 0 0 -55.977 16.872 -67.477 115.096 c -11.5 98.226 -7.302 103.51 -23.809 122.335 C 485.228 478.091 582.359 241.19 411.8 196.549 z" style="stroke: none; stroke-width: 1; stroke-dasharray: none; stroke-linecap: butt; stroke-linejoin: miter; stroke-miterlimit: 10; fill: #c8d850; fill-rule: nonzero; opacity: 1;" transform=" matrix(1 0 0 1 0 0) " stroke-linecap="round" />
  <path d="M 60.875 235.776 c 0.926 0.249 1.855 0.367 2.771 0.367 c 4.708 0 9.017 -3.141 10.295 -7.905 l 12.644 -47.119 c 0.672 -2.493 1.412 -4.949 2.208 -7.373 c 10.87 5.814 28.828 12.48 54.093 12.48 c 24.192 0 50.554 -6.076 78.353 -18.056 c 22.333 -9.624 39.136 -17.175 52.637 -23.242 c 28.936 -13.002 39.762 -17.868 48.971 -17.868 c 2.703 0 5.695 0.365 10.001 1.219 c 3.617 0.717 7.346 -0.482 9.864 -3.173 c 2.518 -2.691 3.47 -6.492 2.515 -10.051 c -9.79 -36.515 -30.252 -66.602 -59.176 -87.008 C 260.423 9.967 228.547 0.009 196.295 0.009 c -43.653 0 -83.509 18.085 -106.614 48.379 c -15.459 20.27 -30.779 55.392 -17.353 108.345 c -2.467 6.073 -4.596 12.359 -6.343 18.846 l -12.647 47.13 C 51.811 228.399 55.185 234.251 60.875 235.776 z M 106.644 61.325 c 19.095 -25.037 52.609 -39.984 89.651 -39.984 c 43.623 0 100.072 22.464 123.576 84.472 c -12.645 0.74 -25.085 6.33 -54.738 19.657 c -13.435 6.037 -30.155 13.55 -52.335 23.11 c -25.119 10.825 -48.64 16.314 -69.911 16.314 c -23.1 0 -38.164 -6.413 -45.878 -10.898 c 9.38 -18.422 22.569 -34.168 38.303 -46.499 c 6.713 0.196 19.359 2.09 33.416 5.806 c 0.913 0.242 1.831 0.356 2.734 0.356 c 4.723 0 9.042 -3.161 10.305 -7.943 c 1.505 -5.695 -1.891 -11.532 -7.586 -13.038 c -3.182 -0.842 -6.716 -1.696 -10.391 -2.5 c 28.644 -13.078 61.827 -16.656 94.543 -7.85 c 5.688 1.533 11.541 -1.839 13.073 -7.527 s -1.84 -11.541 -7.528 -13.072 c -49.3 -13.272 -99.516 -2.129 -137.756 25.989 c -0.692 0.406 -1.336 0.885 -1.916 1.43 c -13.552 10.275 -25.534 22.713 -35.362 36.971 C 87.122 101.119 93.115 79.062 106.644 61.325 z" style="stroke: none; stroke-width: 1; stroke-dasharray: none; stroke-linecap: butt; stroke-linejoin: miter; stroke-miterlimit: 10; fill: #000003; fill-rule: nonzero; opacity: 1;" transform=" matrix(1 0 0 1 0 0) " stroke-linecap="round" />
  <path d="M 280.134 434.809 l -47.151 12.614 c -2.483 0.661 -4.969 1.247 -7.455 1.767 c -0.7 -22.535 -10.855 -67.006 -71.098 -111.845 c -19.51 -14.52 -34.455 -25.289 -46.464 -33.941 c -36.175 -26.065 -39.034 -28.383 -43.905 -42.71 c -1.185 -3.489 -4.088 -6.118 -7.678 -6.954 c -3.588 -0.838 -7.355 0.239 -9.961 2.844 C 22.608 280.385 7.263 309.324 2.05 340.269 c -4.705 27.929 -1.277 56.974 9.911 84 c 10.379 25.073 26.631 46.631 46.995 62.34 c 21.519 16.601 46.114 25.378 71.126 25.382 c 0.004 0 0.009 0 0.013 0 c 31.278 0 61.955 -13.829 88.923 -40.038 c 6.485 -0.901 12.985 -2.191 19.469 -3.919 l 47.162 -12.617 c 5.69 -1.523 9.07 -7.369 7.546 -13.06 C 291.673 436.665 285.824 433.286 280.134 434.809 z M 130.085 490.657 c -40.406 -0.004 -79.954 -29.964 -98.414 -74.55 c -19.05 -46.018 -11.67 -94.686 19.441 -132.938 c 7.022 10.62 18.485 18.88 44.382 37.541 c 11.948 8.609 26.82 19.325 46.198 33.747 c 30.01 22.335 50.226 47.655 58.463 73.22 c 3.312 10.278 4.068 18.703 4.066 24.288 c -16.924 0.891 -33.57 -1.335 -49.237 -6.274 c 0.57 -11.247 0.451 -26.953 -2.85 -41.675 c -1.29 -5.748 -6.994 -9.362 -12.742 -8.074 c -5.748 1.29 -9.363 6.994 -8.073 12.741 c 1.794 8 2.672 17.908 2.586 28.433 c -34.479 -17.382 -61.692 -48.806 -72.399 -88.948 c -1.518 -5.692 -7.363 -9.077 -13.054 -7.557 c -5.692 1.518 -9.075 7.363 -7.557 13.054 c 13.824 51.825 51.515 91.052 98.116 109.021 c 0.647 0.323 1.335 0.581 2.054 0.769 c 13.741 5.086 28.228 8.336 43.086 9.527 c -17.354 11.633 -35.69 17.676 -54.057 17.675 C 130.092 490.657 130.086 490.657 130.085 490.657 z" style="stroke: none; stroke-width: 1; stroke-dasharray: none; stroke-linecap: butt; stroke-linejoin: miter; stroke-miterlimit: 10; fill: #000003; fill-rule: nonzero; opacity: 1;" transform=" matrix(1 0 0 1 0 0) " stroke-linecap="round" />
  <path d="M 391.857 383.084 c -0.689 0.736 -0.777 0.823 -1.518 1.564 c -4.164 4.165 -4.164 10.919 0 15.085 c 2.083 2.082 4.813 3.124 7.542 3.124 c 2.731 0 5.459 -1.042 7.542 -3.124 c 0.979 -0.979 1.094 -1.095 2.006 -2.069 c 4.027 -4.301 3.803 -11.05 -0.498 -15.077 C 402.634 378.561 395.884 378.782 391.857 383.084 z" style="stroke: none; stroke-width: 1; stroke-dasharray: none; stroke-linecap: butt; stroke-linejoin: miter; stroke-miterlimit: 10; fill: #000003; fill-rule: nonzero; opacity: 1;" transform=" matrix(1 0 0 1 0 0) " stroke-linecap="round" />
  <path d="M 493.693 238.47 c -16.023 -24.11 -42.124 -41.784 -75.636 -51.269 c -4.029 -5.182 -8.405 -10.16 -13.129 -14.893 l -34.512 -34.512 c -4.166 -4.165 -10.919 -4.164 -15.085 0 c -4.165 4.165 -4.165 10.919 0 15.084 l 34.505 34.504 c 1.808 1.813 3.537 3.681 5.23 5.573 c -19.178 11.882 -52.61 42.912 -61.336 117.447 c -2.827 24.141 -4.686 42.459 -6.179 57.177 c -4.499 44.352 -5.077 47.986 -15.057 59.366 c -2.43 2.771 -3.257 6.601 -2.187 10.129 c 1.07 3.528 3.887 6.253 7.446 7.206 c 14.394 3.856 28.844 5.81 42.945 5.812 c 0.005 0 0.007 0 0.013 0 c 38.221 0 74.751 -14.662 102.861 -41.284 c 25.762 -24.399 43.014 -57.625 47.332 -91.159 C 514.664 288.451 508.712 261.071 493.693 238.47 z M 489.747 314.927 c -7.205 55.961 -57.443 113.84 -129.046 113.836 c -7.32 -0.001 -14.769 -0.613 -22.267 -1.827 c 5.694 -11.392 7.12 -25.444 10.341 -57.2 c 1.486 -14.645 3.335 -32.874 6.143 -56.85 c 4.349 -37.142 16.179 -67.301 34.212 -87.213 c 7.243 -7.999 14.162 -12.865 19.002 -15.656 c 28.062 43.278 30.5 99.727 4.145 145.805 c -0.227 0.404 -0.467 0.804 -0.707 1.208 l -0.539 0.912 c -2.971 5.088 -1.255 11.619 3.832 14.589 c 1.692 0.988 3.541 1.457 5.368 1.457 c 3.668 0 7.238 -1.892 9.221 -5.289 l 0.454 -0.767 c 0.327 -0.551 0.651 -1.098 0.925 -1.584 c 26.718 -46.711 27.717 -102.727 5.489 -149.498 C 475.699 236.191 495.356 271.36 489.747 314.927 z" style="stroke: none; stroke-width: 1; stroke-dasharray: none; stroke-linecap: butt; stroke-linejoin: miter; stroke-miterlimit: 10; fill: #000003; fill-rule: nonzero; opacity: 1;" transform=" matrix(1 0 0 1 0 0) " stroke-linecap="round" />
  <path d="M 208.202 105.858 c -0.702 -0.45 -1.443 -0.897 -2.22 -1.339 c -5.123 -2.91 -11.633 -1.116 -14.543 4.005 c -2.909 5.122 -1.117 11.634 4.005 14.543 c 0.438 0.249 0.858 0.501 1.253 0.754 c 1.781 1.141 3.773 1.686 5.742 1.686 c 3.516 0 6.958 -1.735 8.993 -4.915 C 214.608 115.633 213.162 109.036 208.202 105.858 z" style="stroke: none; stroke-width: 1; stroke-dasharray: none; stroke-linecap: butt; stroke-linejoin: miter; stroke-miterlimit: 10; fill: #000003; fill-rule: nonzero; opacity: 1;" transform=" matrix(1 0 0 1 0 0) " stroke-linecap="round" />
</g>
<g style="stroke: none; stroke-width: 1; stroke-dasharray: none; stroke-linecap: butt; stroke-linejoin: miter; stroke-miterlimit: 10; fill: none; fill-rule: nonzero; opacity: 1;" transform="translate(780.9999999999999 112.14) scale(0.23 0.23)" >
  <circle cx="256" cy="256" r="256" style="stroke: none; stroke-width: 1; stroke-dasharray: none; stroke-linecap: butt; stroke-linejoin: miter; stroke-miterlimit: 10; fill: #FFDC58; fill-rule: nonzero; opacity: 1;" transform="  matrix(1 0 0 1 0 0) "/>
  <path d="M 507.847 302.118 L 393.219 187.489 l -51.7 18.618 l -50.021 -50.021 l -16.237 11.645 l -27.246 27.751 l 43.132 42.312 l -29.834 19.758 l -30.651 25.667 l -40.981 -40.981 l -10.145 16.203 l -7.814 19.79 l 29.686 28.855 l -92.396 75.383 l 128.884 128.884 C 243.877 511.772 249.911 512 256 512 C 381.638 512 486.129 421.49 507.847 302.118 z" style="stroke: none; stroke-width: 1; stroke-dasharray: none; stroke-linecap: butt; stroke-linejoin: miter; stroke-miterlimit: 10; fill: #FFBE00; fill-rule: nonzero; opacity: 1;" transform=" matrix(1 0 0 1 0 0) " stroke-linecap="round" />
  <path d="M 288.263 214.087 c 38.441 -69.349 -46.885 -92.96 -46.885 -92.96 S 209.646 203.779 288.263 214.087 z" style="stroke: none; stroke-width: 1; stroke-dasharray: none; stroke-linecap: butt; stroke-linejoin: miter; stroke-miterlimit: 10; fill: #00A37B; fill-rule: nonzero; opacity: 1;" transform=" matrix(1 0 0 1 0 0) " stroke-linecap="round" />
  <path d="M 299.408 230.678 c -0.281 0.853 -0.886 1.598 -1.751 2.034 c -1.729 0.872 -3.839 0.178 -4.711 -1.551 l -31.256 -61.973 c -0.872 -1.729 -0.178 -3.839 1.552 -4.711 c 1.729 -0.872 3.839 -0.178 4.711 1.552 L 299.208 228 C 299.644 228.866 299.689 229.826 299.408 230.678 z" style="stroke: none; stroke-width: 1; stroke-dasharray: none; stroke-linecap: butt; stroke-linejoin: miter; stroke-miterlimit: 10; fill: #446864; fill-rule: nonzero; opacity: 1;" transform=" matrix(1 0 0 1 0 0) " stroke-linecap="round" />
  <path d="M 193.667 289.606 c 27.379 -40.672 -23.926 -59.768 -23.926 -59.768 S 145.786 279.064 193.667 289.606 z" style="stroke: none; stroke-width: 1; stroke-dasharray: none; stroke-linecap: butt; stroke-linejoin: miter; stroke-miterlimit: 10; fill: #00A37B; fill-rule: nonzero; opacity: 1;" transform=" matrix(1 0 0 1 0 0) " stroke-linecap="round" />
  <path d="M 199.649 300.422 c -0.219 0.51 -0.631 0.938 -1.188 1.16 c -1.112 0.445 -2.374 -0.095 -2.819 -1.207 l -15.951 -39.845 c -0.445 -1.112 0.095 -2.374 1.207 -2.82 c 1.112 -0.445 2.374 0.095 2.819 1.207 l 15.951 39.845 C 199.89 299.317 199.866 299.911 199.649 300.422 z" style="stroke: none; stroke-width: 1; stroke-dasharray: none; stroke-linecap: butt; stroke-linejoin: miter; stroke-miterlimit: 10; fill: #446864; fill-rule: nonzero; opacity: 1;" transform=" matrix(1 0 0 1 0 0) " stroke-linecap="round" />
  <path d="M 310.727 235.139 c 22.347 58.189 79.677 18.727 79.677 18.727 S 356.655 192.996 310.727 235.139 z" style="stroke: none; stroke-width: 1; stroke-dasharray: none; stroke-linecap: butt; stroke-linejoin: miter; stroke-miterlimit: 10; fill: #007D66; fill-rule: nonzero; opacity: 1;" transform=" matrix(1 0 0 1 0 0) " stroke-linecap="round" />
  <path d="M 295.103 233.47 c -0.372 -0.6 -0.514 -1.341 -0.34 -2.082 c 0.348 -1.483 1.833 -2.401 3.315 -2.053 l 53.117 12.485 c 1.483 0.348 2.401 1.833 2.053 3.315 c -0.348 1.483 -1.833 2.401 -3.315 2.053 l -53.117 -12.485 C 296.076 234.529 295.476 234.07 295.103 233.47 z" style="stroke: none; stroke-width: 1; stroke-dasharray: none; stroke-linecap: butt; stroke-linejoin: miter; stroke-miterlimit: 10; fill: #446864; fill-rule: nonzero; opacity: 1;" transform=" matrix(1 0 0 1 0 0) " stroke-linecap="round" />
  <path d="M 246.406 281.235 c 18.006 46.887 64.202 15.089 64.202 15.089 S 283.414 247.277 246.406 281.235 z" style="stroke: none; stroke-width: 1; stroke-dasharray: none; stroke-linecap: butt; stroke-linejoin: miter; stroke-miterlimit: 10; fill: #007D66; fill-rule: nonzero; opacity: 1;" transform=" matrix(1 0 0 1 0 0) " stroke-linecap="round" />
  <path d="M 233.817 279.89 c -0.3 -0.483 -0.414 -1.081 -0.274 -1.677 c 0.281 -1.195 1.477 -1.936 2.67 -1.655 l 42.801 10.059 c 1.195 0.281 1.934 1.477 1.655 2.67 c -0.281 1.195 -1.477 1.936 -2.67 1.655 l -42.801 -10.059 C 234.601 280.741 234.117 280.373 233.817 279.89 z" style="stroke: none; stroke-width: 1; stroke-dasharray: none; stroke-linecap: butt; stroke-linejoin: miter; stroke-miterlimit: 10; fill: #446864; fill-rule: nonzero; opacity: 1;" transform=" matrix(1 0 0 1 0 0) " stroke-linecap="round" />
  <path d="M 234.646 298.032 c -44.418 43.87 14.812 80.627 14.812 80.627 S 291.757 323.251 234.646 298.032 z" style="stroke: none; stroke-width: 1; stroke-dasharray: none; stroke-linecap: butt; stroke-linejoin: miter; stroke-miterlimit: 10; fill: #007D66; fill-rule: nonzero; opacity: 1;" transform=" matrix(1 0 0 1 0 0) " stroke-linecap="round" />
  <path d="M 229.904 283.027 c 0.402 -0.583 1.024 -1.01 1.774 -1.148 c 1.5 -0.276 2.939 0.717 3.215 2.217 l 9.875 53.751 c 0.276 1.5 -0.717 2.939 -2.217 3.215 c -1.5 0.276 -2.939 -0.717 -3.215 -2.217 l -9.875 -53.751 C 229.324 284.344 229.504 283.608 229.904 283.027 z" style="stroke: none; stroke-width: 1; stroke-dasharray: none; stroke-linecap: butt; stroke-linejoin: miter; stroke-miterlimit: 10; fill: #446864; fill-rule: nonzero; opacity: 1;" transform=" matrix(1 0 0 1 0 0) " stroke-linecap="round" />
  <path d="M 109.011 382.471 c 0 0 100.611 -149.816 284.208 -194.981 c 0 0 -167.44 54.712 -254.466 218.114 L 109.011 382.471 z" style="stroke: none; stroke-width: 1; stroke-dasharray: none; stroke-linecap: butt; stroke-linejoin: miter; stroke-miterlimit: 10; fill: #935635; fill-rule: nonzero; opacity: 1;" transform=" matrix(1 0 0 1 0 0) " stroke-linecap="round" />
  <path d="M 138.754 405.604 c 62.507 -117.365 166.497 -178.655 220.132 -203.876 c -148.964 58.184 -229.669 180.496 -236.487 191.155 L 138.754 405.604 z" style="stroke: none; stroke-width: 1; stroke-dasharray: none; stroke-linecap: butt; stroke-linejoin: miter; stroke-miterlimit: 10; fill: #804000; fill-rule: nonzero; opacity: 1;" transform=" matrix(1 0 0 1 0 0) " stroke-linecap="round" />
</g>
  <g transform="translate(691.64 204.03) scale(3.44 3.44)">
   <text font-family="ADAMCG PRO" font-size="40" font-weight="normal" style="stroke: none; stroke-width: 1; stroke-dasharray: none; stroke-linecap: butt; stroke-linejoin: miter; stroke-miterlimit: 10; fill: #c8d85f; fill-rule: nonzero; opacity: 1;" ><tspan x="-27.01" y="8.98" style="stroke: none; stroke-width: 0; stroke-dasharray: none; stroke-linecap: butt; stroke-linejoin: miter; stroke-miterlimit: 4; fill: #c8d85f; fill-rule: ; opacity: 1;">g</tspan><tspan x="1.39" y="8.98" style="stroke: none; stroke-width: 0; stroke-dasharray: none; stroke-linecap: butt; stroke-linejoin: miter; stroke-miterlimit: 4; fill: #c8d85f; fill-rule: ; opacity: 1;">r</tspan></text>
 </g>
  <g transform="translate(458.54 199.77) scale(3.75 3.28)">
   <text font-family="ADAMCG PRO" font-size="40" font-weight="normal" style="stroke: none; stroke-width: 1; stroke-dasharray: none; stroke-linecap: butt; stroke-linejoin: miter; stroke-miterlimit: 10; fill: #000000; fill-rule: nonzero; opacity: 1;" ><tspan x="-36.18" y="8.98" style="stroke: none; stroke-width: 0; stroke-dasharray: none; stroke-linecap: butt; stroke-linejoin: miter; stroke-miterlimit: 4; fill: #000000; fill-rule: ; opacity: 1;">a</tspan><tspan x="-8.39" y="8.98" style="stroke: none; stroke-width: 0; stroke-dasharray: none; stroke-linecap: butt; stroke-linejoin: miter; stroke-miterlimit: 4; fill: #000000; fill-rule: ; opacity: 1;">f</tspan><tspan x="12.92" y="8.98" style="stroke: none; stroke-width: 0; stroke-dasharray: none; stroke-linecap: butt; stroke-linejoin: miter; stroke-miterlimit: 4; fill: #000000; fill-rule: ; opacity: 1;">e</tspan></text>
 </g>
  <g transform="translate(982.61 191.94) scale(4.13 4.13)">
   <text font-family="ADAMCG PRO" font-size="40" font-weight="normal" style="stroke: none; stroke-width: 1; stroke-dasharray: none; stroke-linecap: butt; stroke-linejoin: miter; stroke-miterlimit: 10; fill: #000000; fill-rule: nonzero; opacity: 1;" ><tspan x="-22.41" y="8.98" style="stroke: none; stroke-width: 0; stroke-dasharray: none; stroke-linecap: butt; stroke-linejoin: miter; stroke-miterlimit: 4; fill: #000000; fill-rule: ; opacity: 1;">W</tspan></text>
 </g>
  <g transform="translate(148.47 199.89) scale(4.31 4.31)">
   <text font-family="ADAMCG PRO" font-size="40" font-weight="normal" style="stroke: none; stroke-width: 1; stroke-dasharray: none; stroke-linecap: butt; stroke-linejoin: miter; stroke-miterlimit: 10; fill: #000000; fill-rule: nonzero; opacity: 1;" ><tspan x="-13.54" y="8.98" style="stroke: none; stroke-width: 0; stroke-dasharray: none; stroke-linecap: butt; stroke-linejoin: miter; stroke-miterlimit: 4; fill: #000000; fill-rule: ; opacity: 1;">c</tspan></text>
 </g>
</svg>